Coordinates
version=1
nRows=49
nColumns=12
inDegrees=yes

Units are S.I. units (second, meters, Newtons, ...)
Angles are in degrees

endheader
time	SC_y	SC_z	SC_x	AC_y	AC_z	AC_x	GH_y	GH_z	GH_yy	EL_x	PS_y
       0.0              -59.18          6.168          81.06          49.01         0.6211          15.17          6.287          82.93          157.0          53.11          125.4
   0.03692              -59.17          6.168          81.06          49.01         0.6183          15.17          6.296          82.93          157.0          53.11          125.4
   0.07385              -59.17          6.168          81.06          49.01         0.6153          15.16          6.306          82.92          157.0          53.11          125.4
    0.1108              -59.17          6.167          81.06          49.01         0.6121          15.15          6.316          82.91          157.0          53.12          125.4
    0.1477              -59.16          6.167          81.06          49.01         0.6087          15.15          6.327           82.9          157.0          53.12          125.4
    0.1846              -59.16          6.166          81.06          49.01         0.6051          15.14          6.338          82.89          157.0          53.13          125.4
    0.2215              -59.15          6.166          81.06          49.01         0.6012          15.13           6.35          82.88          156.9          53.13          125.3
    0.2585              -59.15          6.165          81.05          49.01         0.5971          15.13          6.363          82.87          156.9          53.14          125.3
    0.2954              -59.14          6.164          81.05          49.01         0.5926          15.12          6.377          82.86          156.9          53.14          125.3
    0.3323              -59.13          6.164          81.05           49.0         0.5879          15.11          6.393          82.85          156.9          53.15          125.3
    0.3692              -59.13          6.163          81.05           49.0         0.5828           15.1          6.409          82.83          156.9          53.15          125.3
    0.4062              -59.12          6.162          81.05           49.0         0.5773          15.09          6.426          82.82          156.8          53.16          125.3
    0.4431              -59.11          6.161          81.04           49.0         0.5714          15.08          6.445           82.8          156.8          53.17          125.3
      0.48               -59.1          6.161          81.04           49.0          0.565          15.07          6.465          82.79          156.8          53.18          125.2
    0.5169              -59.09           6.16          81.04           49.0         0.5581          15.06          6.487          82.77          156.7          53.18          125.2
    0.5538              -59.08          6.159          81.03           49.0         0.5506          15.04          6.511          82.75          156.7          53.19          125.2
    0.5908              -59.07          6.157          81.03          48.99         0.5424          15.03          6.536          82.73          156.7           53.2          125.2
    0.6277              -59.06          6.156          81.03          48.99         0.5335          15.01          6.565           82.7          156.6          53.22          125.2
    0.6646              -59.05          6.155          81.02          48.99         0.5238          14.99          6.595          82.68          156.6          53.23          125.1
    0.7015              -59.03          6.153          81.02          48.99         0.5132          14.97          6.629          82.65          156.5          53.24          125.1
    0.7385              -59.02          6.152          81.01          48.99         0.5015          14.95          6.666          82.62          156.5          53.26          125.1
    0.7754               -59.0           6.15          81.01          48.98         0.4887          14.93          6.706          82.58          156.4          53.27          125.0
    0.8123              -58.98          6.148           81.0          48.98         0.4745           14.9          6.751          82.55          156.3          53.29          125.0
    0.8492              -58.96          6.146          80.99          48.98         0.4588          14.88          6.801           82.5          156.3          53.31          125.0
    0.8862              -58.94          6.143          80.99          48.97         0.4413          14.84          6.856          82.46          156.2          53.33          124.9
    0.9231              -58.91           6.14          80.98          48.97         0.4218          14.81          6.918          82.41          156.1          53.36          124.9
      0.96              -58.88          6.137          80.97          48.96            0.4          14.77          6.987          82.35          156.0          53.38          124.8
    0.9969              -58.85          6.134          80.96          48.96         0.3754          14.73          7.065          82.28          155.9          53.41          124.7
     1.034              -58.81           6.13          80.95          48.95         0.3477          14.67          7.152          82.21          155.7          53.45          124.6
     1.071              -58.77          6.126          80.93          48.95         0.3162          14.62          7.252          82.13          155.6          53.49          124.6
     1.108              -58.72          6.121          80.92          48.94         0.2802          14.55          7.366          82.03          155.4          53.53          124.5
     1.145              -58.67          6.115           80.9          48.93         0.2389          14.48          7.496          81.92          155.2          53.58          124.3
     1.182               -58.6          6.108          80.88          48.92         0.1913          14.39          7.647           81.8          155.0          53.64          124.2
     1.218              -58.53            6.1          80.85          48.91         0.1359          14.29          7.822          81.65          154.7          53.71          124.1
     1.255              -58.44          6.091          80.83           48.9        0.07108          14.17          8.027          81.48          154.4          53.79          123.9
     1.292              -58.34           6.08          80.79          48.88      -0.005297          14.04          8.269          81.28          154.1          53.89          123.7
     1.329              -58.22          6.068          80.75          48.86       -0.09607          13.87          8.556          81.04          153.6           54.0          123.4
     1.366              -58.07          6.052          80.71          48.84        -0.2049          13.67            8.9          80.75          153.1          54.14          123.1
     1.403               -57.9          6.034          80.65          48.81        -0.3365          13.44          9.316           80.4          152.5          54.31          122.8
      1.44              -57.68          6.011          80.58          48.78        -0.4973          13.14          9.825          79.98          151.7          54.51          122.3
     1.477              -57.42          5.983          80.49          48.73        -0.6958          12.78          10.45          79.45          150.8          54.76          121.8
     1.514              -57.09          5.949          80.39          48.68        -0.9432          12.34          11.24           78.8          149.6          55.07          121.1
     1.551              -56.67          5.905          80.25          48.62         -1.255          11.77          12.22          77.97          148.1          55.46          120.2
     1.588              -56.14          5.849          80.08          48.53         -1.651          11.05          13.47          76.93          146.2          55.95          119.2
     1.625              -55.46          5.778          79.86          48.43         -2.159          10.13          15.08          75.59          143.8          56.59          117.8
     1.662              -54.59          5.686          79.58          48.29          -2.81          8.955          17.14          73.86          140.7           57.4          116.0
     1.698              -53.48           5.57          79.22          48.12         -3.641          7.449          19.77          71.67          136.7          58.44          113.7
     1.735              -52.08          5.423          78.76           47.9         -4.687          5.555          23.07           68.9          131.8          59.75          110.8
     1.772              -50.37          5.244          78.21          47.63         -5.961          3.247           27.1          65.53          125.7          61.35          107.3
